<svg width="24" height="22" viewBox="0 0 24 22" fill="none" xmlns="http://www.w3.org/2000/svg">
<path d="M20.1667 20.3346H3.83333C3.21449 20.3346 2.621 20.0888 2.18342 19.6512C1.74583 19.2136 1.5 18.6201 1.5 18.0013V4.0013C1.5 3.38246 1.74583 2.78897 2.18342 2.35139C2.621 1.9138 3.21449 1.66797 3.83333 1.66797H15.5C16.1188 1.66797 16.7123 1.9138 17.1499 2.35139C17.5875 2.78897 17.8333 3.38246 17.8333 4.0013V5.16797M20.1667 20.3346C19.5478 20.3346 18.9543 20.0888 18.5168 19.6512C18.0792 19.2136 17.8333 18.6201 17.8333 18.0013V5.16797M20.1667 20.3346C20.7855 20.3346 21.379 20.0888 21.8166 19.6512C22.2542 19.2136 22.5 18.6201 22.5 18.0013V7.5013C22.5 6.88246 22.2542 6.28897 21.8166 5.85139C21.379 5.4138 20.7855 5.16797 20.1667 5.16797H17.8333M13.1667 1.66797H8.5M6.16667 15.668H13.1667M6.16667 6.33464H13.1667V11.0013H6.16667V6.33464Z" stroke="#565656" stroke-width="2" stroke-linecap="round" stroke-linejoin="round"/>
</svg>
